# xmcd
#
# Track frame offsets: 
#        180
#        71138
#        131392
#
# Disc length: 3503 seconds
#
# Revision: 2
# Processed by: cddbd v1.5.2PL0 Copyright (c) Steve Scherf et al.
# Submitted via: ExactAudioCopyFreeDBPlugin 1.0
#
DISCID=250dad03
DTITLE=Nusrat Fateh Ali Khan - Megastar
DYEAR=1996
DGENRE=
TTITLE0=Shada Sookhan Diyan Nindran
TTITLE1=Jadon Yad Sajan Teri Aaqi
TTITLE2=Main Chithi Panwan Sajanan Noon
EXTD=
EXTT0=
EXTT1=
EXTT2=
PLAYORDER=
